# xmcd CD database file
#
# Track frame offsets:
#	150
#	9896
#	22875
#	31403
#	39608
#	51344
#	61519
#	72714
#	80443
#	91533
#	101129
#	112845
#
# Disc length: 1640 seconds
#
# Revision: 0
# Processed by: cddbd v1.5.2PL0 Copyright (c) Steve Scherf et al.
# Submitted via: CDex 1.51
#
DISCID=8806660c
DTITLE=The Four Freshmen - Today Is Tomorrow!
DYEAR=1968
DGENRE=Jazz
TTITLE0=Walk On By
TTITLE1=When School Is Out This Year
TTITLE2=Girls
TTITLE3=Come Fly With Me - Up Up And Away
TTITLE4=Here's To You
TTITLE5=Will You Love Me Tomorrow
TTITLE6=Daydream
TTITLE7=Soul Coaxing
TTITLE8=You've Got To Be Loved
TTITLE9=Cherish - Windy
TTITLE10=Lady Madonna
TTITLE11=My Girl
EXTD=YEAR: 1968
EXTT0=
EXTT1=
EXTT2=
EXTT3=
EXTT4=
EXTT5=
EXTT6=
EXTT7=
EXTT8=
EXTT9=
EXTT10=
EXTT11=
PLAYORDER=
